# xmcd
#
# Track frame offsets: 
#        150
#        14480
#        32047
#        46507
#        60100
#        77450
#        90932
#        105302
#        122292
#        133422
#        149560
#        164497
#
# Disc length: 2375 seconds
#
# Revision: 3
# Processed by: cddbd v1.4PL0 Copyright (c) Steve Scherf et al.
# Submitted via: ExactAudioCopy v0.90b4
#
DISCID=8909450c
DTITLE=Ricky Skaggs - Collection - Disc 1
DYEAR=1900
DGENRE=Country
TTITLE0=Don't Get Above Your Raisin
TTITLE1=Life's Too Long (To Live Like This)
TTITLE2=I Wonder If I Care As Much
TTITLE3=Crying My Heart Out Over You
TTITLE4=Country Boy
TTITLE5=I've Got A New Heartache
TTITLE6=Highway 40 Blues
TTITLE7=Cajun Moon
TTITLE8=You May See Me Walkin'
TTITLE9=Lovin' Only Me
TTITLE10=Don't Cheat In Our Hometown
TTITLE11=Raisin' The Dickens
EXTD=
EXTT0=
EXTT1=
EXTT2=
EXTT3=
EXTT4=
EXTT5=
EXTT6=
EXTT7=
EXTT8=
EXTT9=
EXTT10=
EXTT11=
PLAYORDER=
